<?xml version="1.0" encoding="UTF-8"?>
<svg width="716px" height="208px" viewBox="0 0 716 208" version="1.1" xmlns="http://www.w3.org/2000/svg" xmlns:xlink="http://www.w3.org/1999/xlink">
    <!-- Generator: Sketch 52.5 (67469) - http://www.bohemiancoding.com/sketch -->
    <title>Group 3</title>
    <desc>Created with Sketch.</desc>
    <g id="Page-1" stroke="none" stroke-width="1" fill="none" fill-rule="evenodd">
        <g id="Desktop-HD" transform="translate(-241.000000, -1336.000000)" fill="#FFFFFF">
            <g id="Group-3" transform="translate(241.000000, 1336.000000)">
                <g id="typografie_Vestada" transform="translate(223.000000, 1.000000)" fill-rule="nonzero">
                    <polygon id="Shape" points="18.7748328 42 11.4197904 42 0 14 6.76174777 14 15.1561882 35.6582722 23.5506285 14 30.1357466 14"></polygon>
                    <path d="M60.2714932,28.4519271 C60.2714932,29.2293122 60.2136065,30.0045013 60.1557197,30.6962423 L39.5079589,30.6962423 C39.9137282,34.8609543 43.5843705,37.9645214 47.8191613,37.7234525 C50.762668,37.659455 53.6022844,36.6380938 55.8965903,34.8181403 L58.9289657,39.1047385 C55.7223143,41.7645904 51.6250709,43.1490085 47.4384445,42.9872721 C39.0693554,42.9872721 33.1493213,37.2337438 33.1493213,28.4936511 C33.1493213,19.8655546 38.8355819,14.0000301 47.0599542,14.0000301 C54.8768928,13.9846581 60.2425498,19.8523786 60.2714932,28.4519271 Z M39.5369022,26.1219677 L54.0308556,26.1219677 C53.3629314,21.8353695 50.8225934,19.3341219 46.9441807,19.3341219 C43.0128948,19.2282984 39.7196805,22.2470255 39.5391286,26.1219677 L39.5369022,26.1219677 Z" id="Shape"></path>
                    <path d="M88.0524828,21.6165043 C85.3783356,20.1247333 82.3596586,19.312675 79.2762457,19.255597 C75.8965908,19.255597 73.9090911,20.5745396 73.9090911,22.537566 C73.9090911,24.5005923 75.9848738,25.0127817 78.5948819,25.3952751 L81.5376491,25.8349226 C87.7355694,26.6988301 91.4117647,29.2619753 91.4117647,33.98379 C91.4117647,39.2815431 86.6580639,42.9965649 78.4839622,42.9965649 C74.1419629,43.0741324 69.8829093,41.836344 66.2986425,39.4552039 L69.164445,34.9092482 C71.8461298,36.8953807 75.1653628,37.8953104 78.5337629,37.7317855 C82.7736113,37.7317855 84.9965323,36.4370234 84.9965323,34.3618869 C84.9965323,32.8077328 83.4549751,31.7701646 80.0753202,31.3107329 L77.1099163,30.9370325 C70.823713,30.1017021 67.4734857,27.2813631 67.4734857,22.8453192 C67.4734857,17.3739054 71.9804468,14.0062052 79.2151267,14.0062052 C83.2545208,13.9107435 87.2403871,14.9183942 90.7190826,16.9144737 L88.0524828,21.6165043 Z" id="Shape"></path>
                    <path d="M117.764236,19.9582034 L107.090014,19.9582034 L107.090014,32.0726193 C107.090014,35.8223195 109.068531,37.2756057 111.511145,37.2756057 C113.51836,37.162788 115.45783,36.5104343 117.124715,35.387443 L119.538462,40.2398657 C117.035817,42.0085537 114.052343,42.9715327 110.987093,43 C104.676267,43 100.981259,39.6008635 100.981259,32.1879947 L100.981259,19.9582034 L95.4298643,19.9582034 L95.4298643,14.4312785 L100.981259,14.4312785 L100.981259,6 L107.090014,6 L107.090014,14.4312785 L117.764236,14.4312785 L117.764236,19.9582034 Z" id="Shape"></path>
                    <path d="M149.674208,28.4519271 C149.674208,29.2293122 149.616321,30.0045013 149.558435,30.6962423 L128.910674,30.6962423 C129.316443,34.8609543 132.987085,37.9645214 137.221876,37.7234525 C140.165383,37.659455 143.004999,36.6380938 145.299305,34.8181403 L148.331681,39.1047385 C145.125029,41.7645904 141.027786,43.1490085 136.841159,42.9872721 C128.47207,42.9872721 122.552036,37.2337438 122.552036,28.4936511 C122.552036,19.8655546 128.238297,14.0000301 136.462669,14.0000301 C144.279608,13.9846581 149.645265,19.8523786 149.674208,28.4519271 Z M128.939617,26.1219677 L143.43357,26.1219677 C142.765646,21.8353695 140.225308,19.3341219 136.346896,19.3341219 C132.414754,19.2270789 129.120177,22.2461479 128.939617,26.1219677 Z" id="Shape"></path>
                    <path d="M178.679183,17.5418443 L178.679183,0 L184.832579,0 L184.832579,42.2568419 L178.679183,42.2568419 L178.679183,38.8820312 C176.562233,41.5959288 173.26315,43.1259902 169.817663,42.9918604 C165.952918,42.9803291 162.260865,41.3940375 159.59812,38.6010305 C156.935374,35.8080234 155.533387,32.0510738 155.717441,28.2018537 C155.533387,24.3526335 156.935374,20.5956839 159.59812,17.8026769 C162.260865,15.0096698 165.952918,13.4233782 169.817663,13.411847 C173.266042,13.2858536 176.564339,14.8230568 178.679183,17.5418443 Z M162.048382,28.1973719 C161.863213,31.3466744 163.443031,34.3390659 166.151611,35.9694467 C168.86019,37.5998275 172.251682,37.5998275 174.960261,35.9694467 C177.66884,34.3390659 179.248658,31.3466744 179.063489,28.1973719 C179.248658,25.0480693 177.66884,22.0556778 174.960261,20.425297 C172.251682,18.7949162 168.86019,18.7949162 166.151611,20.425297 C163.443031,22.0556778 161.863213,25.0480693 162.048382,28.1973719 Z" id="Shape"></path>
                    <path d="M222,42.2717851 L215.846604,42.2717851 L215.846604,38.9648345 C213.729654,41.6241616 210.430571,43.1234568 206.985084,42.9920241 C203.120339,42.9807247 199.428286,41.4263299 196.765541,38.689484 C194.102795,35.9526382 192.700808,32.2712325 192.884861,28.4994117 C192.700808,24.7275909 194.102795,21.0461852 196.765541,18.3093394 C199.428286,15.5724935 203.120339,14.0180987 206.985084,14.0067993 C210.435052,13.8854174 213.73365,15.3951181 215.846604,18.062535 L215.846604,14.7182549 L222,14.7182549 L222,42.2717851 Z M199.215803,28.49502 C199.030634,31.5809971 200.610452,34.5132181 203.319031,36.1108156 C206.02761,37.7084131 209.419102,37.7084131 212.127681,36.1108156 C214.836261,34.5132181 216.416079,31.5809971 216.23091,28.49502 C216.416079,25.4090429 214.836261,22.4768219 212.127681,20.8792244 C209.419102,19.2816269 206.02761,19.2816269 203.319031,20.8792244 C200.610452,22.4768219 199.030634,25.4090429 199.215803,28.49502 Z" id="Shape"></path>
                </g>
                <path d="M52.7219258,46.2702703 C53.8113255,46.2702703 54.6238753,45.7302888 55.4409965,44.9282492 L69.2917717,31.1981021 C72.0105566,28.5061274 74.993906,27.1558905 79.0700835,27.1558905 L104.873684,27.1558905 L95.3673651,17.7297297 L71.1894356,17.7297297 C69.832043,17.7297297 69.0234931,17.9997204 68.2066576,18.8096926 L54.3515969,32.5398398 C51.6368118,35.2400303 48.6537481,36.5820513 44.5772849,36.5820513 L18.7736842,36.5820513 L28.2800033,46.2702703 L52.7219258,46.2702703 Z M61.9083591,51.9285179 C59.1945333,54.6485465 55.9317732,56 52.4014005,56 L24.1652738,56 L-9.09494702e-13,32.1401106 L24.1652738,8 L37.7429711,8 L18.4651542,27.2527912 L44.2596375,27.2527912 C45.3443681,27.2527912 46.4290987,26.9808454 47.2459312,26.165008 L61.0915267,12.0632067 C63.8053525,9.3517389 67.0638285,8 70.5944867,8 L99.1027958,8 L123,32.1401106 L99.1027958,56 L85.2569147,56 L104.534732,36.7472088 L78.7402483,36.7472088 C77.6515192,36.7472088 76.8429693,37.2911004 76.0261369,37.827002 L61.9083591,51.9285179 Z" id="path24" transform="translate(61.500000, 32.000000) scale(-1, 1) rotate(-180.000000) translate(-61.500000, -32.000000) "></path>
                <g id="Group-2" transform="translate(0.000000, 142.000000)">
                    <path d="M77.1666667,31.4533333 C77.1666667,39.9666667 70.5066667,46.24 62.3333333,46.24 C54.16,46.24 47.5,39.9666667 47.5,31.4533333 C47.5,22.88 54.16,16.6666667 62.3333333,16.6666667 C70.5066667,16.6666667 77.1666667,22.88 77.1666667,31.4533333 Z M70.6733333,31.4533333 C70.6733333,26.1333333 66.8133333,22.4933333 62.3333333,22.4933333 C57.8533333,22.4933333 53.9933333,26.1333333 53.9933333,31.4533333 C53.9933333,36.72 57.8533333,40.4133333 62.3333333,40.4133333 C66.8133333,40.4133333 70.6733333,36.7133333 70.6733333,31.4533333 Z" id="Shape" fill-rule="nonzero"></path>
                    <path d="M109.166667,31.4533333 C109.166667,39.9666667 102.506667,46.24 94.3333333,46.24 C86.16,46.24 79.5,39.9666667 79.5,31.4533333 C79.5,22.8866667 86.16,16.6666667 94.3333333,16.6666667 C102.506667,16.6666667 109.166667,22.88 109.166667,31.4533333 Z M102.673333,31.4533333 C102.673333,26.1333333 98.8133333,22.4933333 94.3333333,22.4933333 C89.8533333,22.4933333 85.9933333,26.1333333 85.9933333,31.4533333 C85.9933333,36.72 89.8533333,40.4133333 94.3333333,40.4133333 C98.8133333,40.4133333 102.673333,36.7133333 102.673333,31.4533333 Z" id="Shape" fill-rule="nonzero"></path>
                    <path d="M139.833333,17.56 L139.833333,44.1066667 C139.833333,55.0266667 133.393333,59.4866667 125.78,59.4866667 C118.613333,59.4866667 114.3,54.6933333 112.673333,50.7733333 L118.326667,48.42 C119.333333,50.8266667 121.8,53.6666667 125.773333,53.6666667 C130.646667,53.6666667 133.666667,50.66 133.666667,45 L133.666667,42.8733333 L133.44,42.8733333 C131.986667,44.6666667 129.186667,46.2333333 125.653333,46.2333333 C118.26,46.2333333 111.486667,39.7933333 111.486667,31.5066667 C111.486667,23.16 118.26,16.6666667 125.653333,16.6666667 C129.18,16.6666667 131.98,18.2333333 133.44,19.9733333 L133.666667,19.9733333 L133.666667,17.5666667 L139.833333,17.5666667 L139.833333,17.56 Z M134.126667,31.5066667 C134.126667,26.3 130.653333,22.4933333 126.233333,22.4933333 C121.753333,22.4933333 118,26.3 118,31.5066667 C118,36.66 121.753333,40.4133333 126.233333,40.4133333 C130.653333,40.4133333 134.126667,36.66 134.126667,31.5066667 Z" id="Shape" fill-rule="nonzero"></path>
                    <polygon id="Path" points="150 2 150 45.3333333 143.666667 45.3333333 143.666667 2"></polygon>
                    <path d="M174.68,36.32 L179.72,39.68 C178.093333,42.0866667 174.173333,46.2333333 167.4,46.2333333 C159,46.2333333 152.726667,39.74 152.726667,31.4466667 C152.726667,22.6533333 159.053333,16.66 166.673333,16.66 C174.346667,16.66 178.1,22.7666667 179.326667,26.0666667 L180,27.7466667 L160.233333,35.9333333 C161.746667,38.9 164.1,40.4133333 167.4,40.4133333 C170.706667,40.4133333 173,38.7866667 174.68,36.32 Z M159.166667,31 L172.38,25.5133333 C171.653333,23.6666667 169.466667,22.38 166.893333,22.38 C163.593333,22.38 159,25.2933333 159.166667,31 Z" id="Shape" fill-rule="nonzero"></path>
                    <path d="M23.5266667,27.6066667 L23.5266667,21.3333333 L44.6666667,21.3333333 C44.8733333,22.4266667 44.98,23.72 44.98,25.12 C44.98,29.8266667 43.6933333,35.6466667 39.5466667,39.7933333 C35.5133333,43.9933333 30.36,46.2333333 23.5333333,46.2333333 C10.88,46.2333333 0.24,35.9266667 0.24,23.2733333 C0.24,10.62 10.88,0.313333333 23.5333333,0.313333333 C30.5333333,0.313333333 35.52,3.06 39.2666667,6.64 L34.84,11.0666667 C32.1533333,8.54666667 28.5133333,6.58666667 23.5266667,6.58666667 C14.2866667,6.58666667 7.06,14.0333333 7.06,23.2733333 C7.06,32.5133333 14.2866667,39.96 23.5266667,39.96 C29.52,39.96 32.9333333,37.5533333 35.12,35.3666667 C36.8933333,33.5933333 38.06,31.06 38.52,27.6 L23.5266667,27.6066667 Z" id="Path"></path>
                </g>
                <path d="M681.407407,3.56185866 C681.407407,1.59645059 683.001668,0 684.96438,0 C686.927092,0 688.518519,1.59645059 688.518519,3.56185866 C688.518519,5.52442853 686.927092,7.12087912 684.96438,7.12087912 C683.001668,7.12087912 681.407407,5.52442853 681.407407,3.56185866 Z M655.333333,38.2174988 L655.333333,25.5164835 C646.371622,26.5756001 642.296296,28.081837 642.296296,33.4067622 C642.296296,35.0163958 642.786936,36.4248252 643.64091,37.2715595 C644.903989,38.5262913 646.855111,39.1648352 649.830428,39.1648352 C651.937467,39.1648352 653.915766,38.8225086 655.333333,38.2174988 Z M661.259259,40.3699427 L660.859815,40.5839349 C658.200574,41.9656731 654.268976,42.7252747 649.820614,42.7252747 C645.000741,42.7252747 641.464397,41.5972096 639.305161,39.3623368 C637.750679,37.7623549 636.962963,35.6521928 636.962963,33.0942058 C636.962963,28.9248997 638.97555,25.9403453 643.120837,23.9690656 C646.738185,22.2472074 651.338783,21.5740529 655.54692,21.1574058 L655.54692,20.2234925 C655.54692,18.5569037 655.098592,17.2474412 654.215903,16.3347854 C653.083212,15.1642053 651.267554,14.6030071 648.53429,14.6030071 C646.048235,14.6030071 643.412738,15.2095547 641.733953,15.8883778 L641.733953,11.3123447 C643.976989,10.6080125 646.708856,10.0879121 649.356924,10.0879121 C653.486847,10.0879121 656.634919,11.1536219 658.665662,13.2510295 C660.387744,15.0281572 661.259259,17.5067828 661.259259,20.6146306 L661.259259,40.3699427 Z M621.428654,35.638667 L621.485119,35.638667 C621.845082,34.3214317 622.092115,33.5358602 622.675115,31.928244 L630.300689,11.2747253 L635.777778,11.2747253 L619.083951,54 L612.97728,54 L618.618117,41.4168265 L606.740741,11.2747253 L612.782477,11.2747253 C612.782477,11.2747253 620.321943,31.9212299 620.324766,31.928244 C620.697433,33.0617116 621.222557,34.7591073 621.428654,35.638667 Z M711.27451,11.3977159 L711.27451,16.123783 L710.980392,15.9239103 C710.212885,15.4121796 708.133053,14.2171963 705.348739,14.2171963 C703.327731,14.2171963 701.806723,14.8905262 700.701681,16.065664 C699.978992,16.8325513 699.593838,17.7539501 699.593838,18.7221276 C699.593838,21.6691861 702.09944,22.5282133 705.310924,23.7047687 C709.382353,25.1889295 714,27.0232218 714,33.2022639 C714,35.2449341 713.131652,37.2946921 711.553221,38.9744729 C709.305322,41.3616045 705.855743,42.7252747 702.089636,42.7252747 C698.612045,42.7252747 694.976191,41.8634124 693.039216,40.5805419 L692.666667,40.3296379 L694.463586,36.2910761 L694.936975,36.6142744 C696.228292,37.4917297 698.794118,38.3748549 701.616247,38.3748549 C705.316527,38.3748549 708.091036,36.1025438 708.091036,33.3114142 C708.091036,29.9192491 705.457983,28.9368962 702.138656,27.7504181 C698.280112,26.3725726 693.911765,24.7636686 693.911765,18.8865618 C693.911765,14.6197767 697.684874,10.0879121 704.668068,10.0879121 C707.079832,10.0879121 709.394959,10.5571168 711.27451,11.3977159 Z M580.666667,26.4052042 C580.666667,20.2759741 583.988734,16.6153846 589.555556,16.6153846 C595.122377,16.6153846 598.444444,20.2759741 598.444444,26.4052042 C598.444444,32.5372126 595.122377,36.1978022 589.555556,36.1978022 C583.988734,36.1978022 580.666667,32.5372126 580.666667,26.4052042 Z M589.850455,33.8241758 C594.233585,33.8241758 594.888889,29.3616455 594.888889,26.7032968 C594.888889,24.0449479 594.233585,19.5824176 589.850455,19.5824176 C585.467324,19.5824176 584.814815,24.0449479 584.814815,26.7032968 C584.814815,29.3616455 585.465927,33.8241758 589.850455,33.8241758 Z M668.37037,0 L674.296296,0 L674.296296,42.1318681 L668.37037,42.1318681 L668.37037,0 Z M682,11.2747253 L687.925926,11.2747253 L687.925926,42.1318681 L682,42.1318681 L682,11.2747253 Z M574.740741,42.1304569 L574.740741,42.1318681 L554,42.1318681 L554,42.1248121 L554,0 L559.908255,0 L559.908255,37.3097413 L571.482931,37.3097413 C572.32518,39.0765844 573.427331,40.691016 574.740741,42.1022325 L574.740741,42.1304569 Z M589.842519,13.0164493 C581.350142,14.4656445 575.566166,22.4348218 576.98738,30.9177792 C577.439711,33.5927869 578.344373,36.3166596 579.674841,38.5714286 C575.574543,35.7149224 572.906627,30.9457021 572.963866,25.5733485 C573.053216,16.932627 580.146717,10.000783 588.809417,10.08874 C592.190732,10.1250397 595.308187,11.2251994 597.851852,13.062522 C595.312375,12.5529302 592.483909,12.5668916 589.842519,13.0164493 Z M589.857944,39.7978227 C598.355429,38.3484868 604.139079,30.3757431 602.712362,21.8947544 C602.262849,19.2194871 601.359632,16.4953499 600.023656,14.2417582 C604.129308,17.0971455 606.797074,21.8668289 606.739838,27.2369117 C606.646305,35.8840573 599.553201,42.8137819 590.892384,42.7244201 C587.512655,42.6923057 584.395375,41.5892466 581.851852,39.748953 C584.38979,40.2585942 587.216701,40.2460277 589.857944,39.7978227 Z" id="Path-3" fill-rule="nonzero"></path>
                <path d="M280,202 L280,138 L454,138 L454,202 L280,202 Z M284.578947,197.428571 L449.421053,197.428571 L449.421053,142.571429 L284.578947,142.571429 L284.578947,197.428571 Z M315.826142,175.547886 L315.826142,151.714286 L324.257358,151.714286 L324.257358,188.299886 L315.408542,188.299886 L302.215221,164.781257 L302.215221,188.299886 L293.736842,188.299886 L293.736842,151.714286 L302.581995,151.714286 L315.826142,175.547886 Z M336.490932,177.435886 C336.648447,180.467657 337.905826,183.027657 342.0919,183.027657 C344.8672,183.027657 346.231268,181.774171 346.750521,180.155429 L354.606621,180.155429 C353.873989,184.910629 349.371968,188.777143 342.147305,188.777143 C333.298032,188.777143 328.536842,183.289143 328.536842,175.501714 C328.536842,168.133029 333.195921,162.228571 341.938047,162.228571 C349.841311,162.228571 354.917532,167.558857 354.917532,173.7248 C354.917532,174.771657 354.917532,175.920457 354.657447,177.435886 L336.490932,177.435886 Z M336.490932,172.837486 L347.066011,172.837486 C347.066011,169.5968 344.922147,167.558857 341.882642,167.558857 C338.741026,167.558857 336.490932,169.439543 336.490932,172.837486 Z M386.3053,162.856229 L386.3053,188.047543 L378.296263,188.047543 L378.296263,184.494171 C377.094289,186.794057 373.845526,188.6752 370.6018,188.6752 C363.325853,188.6752 358.3,182.976914 358.3,175.450971 C358.3,167.924571 363.325853,162.228571 370.6018,162.228571 C373.845526,162.228571 377.094289,164.162743 378.296263,166.463086 L378.296263,162.856229 L386.3053,162.856229 Z M378.296263,175.450971 C378.296263,172.001829 375.887737,169.022629 372.277695,169.022629 C368.666737,169.022629 366.258668,172.001829 366.258668,175.450971 C366.258668,178.953143 368.666737,181.881143 372.277695,181.881143 C375.887737,181.881143 378.296263,178.953143 378.296263,175.450971 Z M428.043779,166.580114 C428.043779,170.050743 425.055558,171.299657 421.394689,171.299657 C417.212737,171.299657 414.621053,169.380571 414.621053,166.001371 L419.199084,166.001371 C419.199084,167.554743 420.175316,168.1632 421.547626,168.1632 C422.672674,168.1632 423.465747,167.767314 423.465747,166.793143 C423.465747,165.665371 422.310937,165.514057 419.531516,164.599314 C417.093226,163.837714 414.987368,163.137371 414.987368,160.305371 C414.987368,157.260343 417.519984,155.828571 421.483979,155.828571 C425.754305,155.828571 427.830858,157.9904 427.830858,160.792686 L423.222605,160.792686 C423.222605,159.575314 422.582926,158.875429 421.300363,158.875429 C420.358474,158.875429 419.561279,159.301486 419.561279,160.184229 C419.561279,161.250286 420.844758,161.4336 423.316932,162.255086 C425.908158,163.016229 428.043779,163.716571 428.043779,166.580114 Z M440.376258,170.290286 C439.677511,170.411429 438.637174,170.534857 437.264863,170.534857 C435.069716,170.534857 432.051732,170.260571 432.051732,165.355886 L432.051732,159.082971 L429.731579,159.082971 L429.731579,155.610057 L432.051732,155.610057 L432.051732,151.257143 L436.684253,151.257143 L436.684253,155.610057 L440.039705,155.610057 L440.039705,159.082971 L436.684253,159.082971 L436.684253,164.321829 C436.684253,166.483657 437.541889,166.817371 438.700363,166.817371 C439.280974,166.817371 439.949958,166.787657 440.376258,166.725943 L440.376258,170.290286 Z M409.390979,170.372114 C408.291116,170.110629 407.610226,170.0064 406.666963,170.0064 C402.162653,170.0064 399.281579,172.255086 399.281579,178.477714 L399.281579,188.308571 L391.268421,188.308571 L391.268421,163.104 L399.281579,163.104 L399.281579,167.182629 C400.434558,164.829257 403.419574,162.685714 407.085937,162.685714 C407.923884,162.685714 408.657889,162.789486 409.390979,163.104 L409.390979,170.372114 Z" id="nearst-2018" fill-rule="nonzero"></path>
                <path d="M567,146.916044 L569.027974,146.916044 L569.027974,150.339136 L569.097903,150.339136 C569.610727,149.081667 570.444053,148.109472 571.597905,147.422522 C572.751758,146.735571 574.062935,146.392101 575.531475,146.392101 C576.906775,146.392101 578.101402,146.648248 579.115394,147.16055 C580.129385,147.672852 580.974366,148.365614 581.650361,149.238856 C582.326355,150.112098 582.827516,151.125044 583.153858,152.277724 C583.480201,153.430404 583.643369,154.647103 583.643369,155.927858 C583.643369,157.208613 583.480201,158.425312 583.153858,159.577992 C582.827516,160.730672 582.326355,161.743618 581.650361,162.61686 C580.974366,163.490102 580.129385,164.177042 579.115394,164.677701 C578.101402,165.17836 576.906775,165.428686 575.531475,165.428686 C574.87879,165.428686 574.226116,165.347184 573.573431,165.184179 C572.920747,165.021174 572.314692,164.77667 571.755249,164.450659 C571.195805,164.124649 570.700471,163.717142 570.269233,163.228126 C569.837995,162.739111 569.505831,162.168601 569.272729,161.51658 L569.202799,161.51658 L569.202799,171.57628 L567,171.57628 L567,146.916044 Z M581.44057,155.927858 C581.44057,154.9964 581.329848,154.070777 581.108402,153.150962 C580.886956,152.231147 580.537309,151.410311 580.059451,150.688431 C579.581592,149.966551 578.96971,149.378577 578.223785,148.924491 C577.47786,148.470405 576.580432,148.243365 575.531475,148.243365 C574.319346,148.243365 573.30537,148.45294 572.489514,148.872096 C571.673659,149.291253 571.020985,149.850119 570.531471,150.548713 C570.041958,151.247307 569.698138,152.062321 569.500002,152.993779 C569.301866,153.925237 569.202799,154.903254 569.202799,155.927858 C569.202799,156.859316 569.31352,157.784939 569.534967,158.704754 C569.756414,159.624569 570.117716,160.445405 570.618884,161.167285 C571.120052,161.889165 571.772727,162.477139 572.576927,162.931225 C573.381128,163.385311 574.365967,163.612351 575.531475,163.612351 C576.580432,163.612351 577.47786,163.385311 578.223785,162.931225 C578.96971,162.477139 579.581592,161.889165 580.059451,161.167285 C580.537309,160.445405 580.886956,159.624569 581.108402,158.704754 C581.329848,157.784939 581.44057,156.859316 581.44057,155.927858 Z M589.303824,146.916044 L591.331798,146.916044 L591.331798,151.142515 L591.401727,151.142515 C591.961171,149.675468 592.829462,148.546092 594.006625,147.754352 C595.183787,146.962612 596.588203,146.601678 598.219914,146.671537 L598.219914,148.872096 C597.217577,148.825523 596.308495,148.959419 595.49264,149.273786 C594.676784,149.588153 593.971663,150.036411 593.377253,150.618572 C592.782844,151.200733 592.322476,151.893495 591.996133,152.696878 C591.669792,153.500261 591.506622,154.379311 591.506622,155.334056 L591.506622,164.939672 L589.303824,164.939672 L589.303824,146.916044 Z M609.544709,148.243365 C608.495752,148.243365 607.575014,148.464583 606.782469,148.907026 C605.989924,149.349469 605.331422,149.931621 604.806943,150.653502 C604.282465,151.375382 603.886198,152.196217 603.618132,153.116032 C603.350065,154.035847 603.216033,154.973113 603.216033,155.927858 C603.216033,156.882603 603.350065,157.819869 603.618132,158.739684 C603.886198,159.659499 604.282465,160.480334 604.806943,161.202214 C605.331422,161.924095 605.989924,162.506247 606.782469,162.94869 C607.575014,163.391133 608.495752,163.612351 609.544709,163.612351 C610.593666,163.612351 611.514403,163.391133 612.306949,162.94869 C613.099494,162.506247 613.757997,161.924095 614.282475,161.202214 C614.806953,160.480334 615.20322,159.659499 615.471287,158.739684 C615.739354,157.819869 615.873385,156.882603 615.873385,155.927858 C615.873385,154.973113 615.739354,154.035847 615.471287,153.116032 C615.20322,152.196217 614.806953,151.375382 614.282475,150.653502 C613.757997,149.931621 613.099494,149.349469 612.306949,148.907026 C611.514403,148.464583 610.593666,148.243365 609.544709,148.243365 Z M609.544709,146.392101 C610.920009,146.392101 612.137946,146.648248 613.198558,147.16055 C614.25917,147.672852 615.15077,148.359792 615.873385,149.221392 C616.596,150.08299 617.14378,151.090115 617.516743,152.242794 C617.889706,153.395474 618.076184,154.623816 618.076184,155.927858 C618.076184,157.2319 617.889706,158.460242 617.516743,159.612922 C617.14378,160.765601 616.596,161.772726 615.873385,162.634324 C615.15077,163.495924 614.25917,164.177042 613.198558,164.677701 C612.137946,165.17836 610.920009,165.428686 609.544709,165.428686 C608.16941,165.428686 606.951472,165.17836 605.89086,164.677701 C604.830248,164.177042 603.938648,163.495924 603.216033,162.634324 C602.493419,161.772726 601.945637,160.765601 601.572675,159.612922 C601.199713,158.460242 601.013234,157.2319 601.013234,155.927858 C601.013234,154.623816 601.199713,153.395474 601.572675,152.242794 C601.945637,151.090115 602.493419,150.08299 603.216033,149.221392 C603.938648,148.359792 604.830248,147.672852 605.89086,147.16055 C606.951472,146.648248 608.16941,146.392101 609.544709,146.392101 Z M621.568805,146.916044 L624.016359,146.916044 L629.680699,162.739113 L629.75063,162.739113 L635.345039,146.916044 L637.617768,146.916044 L630.869511,164.939672 L628.526852,164.939672 L621.568805,146.916044 Z M642.054446,140 L644.257245,140 L644.257245,143.527881 L642.054446,143.527881 L642.054446,140 Z M642.054446,146.916044 L644.257245,146.916044 L644.257245,164.939672 L642.054446,164.939672 L642.054446,146.916044 Z M650.686931,146.916044 L652.88973,146.916044 L652.88973,150.02477 L652.95966,150.02477 C653.379243,148.930307 654.125156,148.051256 655.197424,147.387592 C656.269691,146.723928 657.446836,146.392101 658.728895,146.392101 C659.987643,146.392101 661.042412,146.555104 661.893233,146.881114 C662.744054,147.207124 663.425866,147.667025 663.938689,148.26083 C664.451512,148.854635 664.812814,149.582325 665.022606,150.443924 C665.232397,151.305523 665.337291,152.271897 665.337291,153.343074 L665.337291,164.939672 L663.134492,164.939672 L663.134492,153.692369 C663.134492,152.923916 663.064563,152.207868 662.924702,151.544204 C662.784841,150.88054 662.540088,150.304209 662.190436,149.815193 C661.840783,149.326178 661.36876,148.941957 660.774351,148.662519 C660.179942,148.383082 659.439856,148.243365 658.55407,148.243365 C657.668284,148.243365 656.881578,148.400546 656.193928,148.714914 C655.506279,149.029281 654.923533,149.460074 654.445675,150.007305 C653.967817,150.554537 653.59486,151.206548 653.326793,151.963358 C653.058726,152.720168 652.91304,153.541003 652.88973,154.425889 L652.88973,164.939672 L650.686931,164.939672 L650.686931,146.916044 Z M684.459295,152.574625 C684.156263,151.22401 683.596827,150.164492 682.780972,149.396039 C681.965117,148.627586 680.822936,148.243365 679.354396,148.243365 C678.305439,148.243365 677.384701,148.464583 676.592156,148.907026 C675.79961,149.349469 675.141109,149.931621 674.61663,150.653502 C674.092151,151.375382 673.695885,152.196217 673.427818,153.116032 C673.159751,154.035847 673.02572,154.973113 673.02572,155.927858 C673.02572,156.882603 673.159751,157.819869 673.427818,158.739684 C673.695885,159.659499 674.092151,160.480334 674.61663,161.202214 C675.141109,161.924095 675.79961,162.506247 676.592156,162.94869 C677.384701,163.391133 678.305439,163.612351 679.354396,163.612351 C680.03039,163.612351 680.67141,163.484277 681.277475,163.228126 C681.883539,162.971975 682.419664,162.616862 682.885867,162.162776 C683.35207,161.70869 683.736682,161.167288 684.039714,160.538554 C684.342746,159.909819 684.529224,159.222879 684.599155,158.477712 L686.801954,158.477712 C686.498922,160.66664 685.694734,162.372347 684.389364,163.594886 C683.083996,164.817425 681.40569,165.428686 679.354396,165.428686 C677.979097,165.428686 676.761159,165.17836 675.700547,164.677701 C674.639935,164.177042 673.748334,163.495924 673.02572,162.634324 C672.303105,161.772726 671.755325,160.765601 671.382362,159.612922 C671.0094,158.460242 670.822921,157.2319 670.822921,155.927858 C670.822921,154.623816 671.0094,153.395474 671.382362,152.242794 C671.755325,151.090115 672.303105,150.08299 673.02572,149.221392 C673.748334,148.359792 674.639935,147.672852 675.700547,147.16055 C676.761159,146.648248 677.979097,146.392101 679.354396,146.392101 C681.289139,146.392101 682.926653,146.904395 684.266987,147.928999 C685.607321,148.953604 686.405682,150.50213 686.662094,152.574625 L684.459295,152.574625 Z M692.147723,140 L694.350522,140 L694.350522,143.527881 L692.147723,143.527881 L692.147723,140 Z M692.147723,146.916044 L694.350522,146.916044 L694.350522,164.939672 L692.147723,164.939672 L692.147723,146.916044 Z M713.787211,154.670396 C713.7639,153.832083 713.618215,153.028712 713.350148,152.260259 C713.082081,151.491806 712.703296,150.810687 712.213783,150.216883 C711.724269,149.623078 711.12987,149.145713 710.430565,148.784773 C709.73126,148.423832 708.938727,148.243365 708.052941,148.243365 C707.143845,148.243365 706.339656,148.423832 705.640352,148.784773 C704.941047,149.145713 704.346646,149.623078 703.857134,150.216883 C703.36762,150.810687 702.977181,151.497627 702.685804,152.277724 C702.394427,153.05782 702.202121,153.855369 702.108881,154.670396 L713.787211,154.670396 Z M702.108881,156.52166 C702.108881,157.313399 702.219602,158.134235 702.441048,158.98419 C702.662495,159.834146 703.017969,160.596766 703.507483,161.272074 C703.996996,161.947381 704.614706,162.506247 705.360631,162.94869 C706.106556,163.391133 707.003984,163.612351 708.052941,163.612351 C709.661342,163.612351 710.920071,163.193201 711.829167,162.354888 C712.738264,161.516576 713.367628,160.398843 713.717281,159.001655 L715.920079,159.001655 C715.453876,161.050864 714.597241,162.634319 713.350148,163.752069 C712.103054,164.869819 710.337336,165.428686 708.052941,165.428686 C706.631021,165.428686 705.401429,165.17836 704.364127,164.677701 C703.326825,164.177042 702.481844,163.490102 701.82916,162.61686 C701.176476,161.743618 700.692797,160.730672 700.37811,159.577992 C700.063423,158.425312 699.906081,157.208613 699.906081,155.927858 C699.906081,154.740249 700.063423,153.575943 700.37811,152.434907 C700.692797,151.29387 701.176476,150.275103 701.82916,149.378574 C702.481844,148.482046 703.326825,147.760176 704.364127,147.212944 C705.401429,146.665713 706.631021,146.392101 708.052941,146.392101 C709.498171,146.392101 710.73359,146.683177 711.759238,147.265339 C712.784884,147.8475 713.61821,148.61012 714.259239,149.553222 C714.900269,150.496323 715.360637,151.579128 715.640359,152.801667 C715.920081,154.024206 716.03663,155.264191 715.99001,156.52166 L702.108881,156.52166 Z M567.034965,175.899777 L569.237764,175.899777 L569.237764,200.83945 L567.034965,200.83945 L567.034965,175.899777 Z M575.73738,175.899777 L577.940179,175.899777 L577.940179,179.427658 L575.73738,179.427658 L575.73738,175.899777 Z M575.73738,182.815821 L577.940179,182.815821 L577.940179,200.83945 L575.73738,200.83945 L575.73738,182.815821 Z M584.40483,182.815821 L586.432804,182.815821 L586.432804,185.854689 L586.537699,185.854689 C587.120453,184.736939 587.883849,183.86371 588.82791,183.234975 C589.771972,182.606241 590.978254,182.291878 592.446794,182.291878 C593.635612,182.291878 594.713691,182.582955 595.681063,183.165116 C596.648434,183.747278 597.295281,184.63215 597.621623,185.819759 C598.157757,184.63215 598.95029,183.747278 599.999248,183.165116 C601.048204,182.582955 602.167075,182.291878 603.355893,182.291878 C607.34193,182.291878 609.334919,184.399271 609.334919,188.61412 L609.334919,200.83945 L607.13212,200.83945 L607.13212,188.718909 C607.13212,187.228575 606.817437,186.093378 606.188063,185.313281 C605.558689,184.533185 604.451474,184.143143 602.866382,184.143143 C601.910666,184.143143 601.118133,184.32361 600.488759,184.68455 C599.859384,185.04549 599.358223,185.528677 598.98526,186.134125 C598.612298,186.739573 598.350063,187.432334 598.198547,188.212431 C598.047031,188.992527 597.971274,189.801719 597.971274,190.640032 L597.971274,200.83945 L595.768475,200.83945 L595.768475,188.61412 C595.768475,188.008672 595.704373,187.432341 595.576167,186.885109 C595.447962,186.337878 595.238173,185.860512 594.946796,185.452999 C594.655419,185.045486 594.26498,184.725302 593.775467,184.492438 C593.285953,184.259573 592.691553,184.143143 591.992249,184.143143 C591.059842,184.143143 590.249827,184.311967 589.562177,184.64962 C588.874527,184.987274 588.315092,185.452996 587.883854,186.046801 C587.452616,186.640606 587.132106,187.339189 586.922315,188.142572 C586.712524,188.945955 586.607629,189.825005 586.607629,190.77975 L586.607629,200.83945 L584.40483,200.83945 L584.40483,182.815821 Z M615.764605,175.899777 L617.967404,175.899777 L617.967404,186.238913 L618.037334,186.238913 C618.270435,185.586892 618.6026,185.016383 619.033838,184.527367 C619.465076,184.038352 619.960409,183.625023 620.519853,183.287369 C621.079297,182.949716 621.685352,182.69939 622.338037,182.536385 C622.990721,182.37338 623.643396,182.291878 624.29608,182.291878 C625.671379,182.291878 626.866006,182.548025 627.879999,183.060328 C628.893991,183.57263 629.738971,184.265391 630.414966,185.138634 C631.09096,186.011876 631.592121,187.024822 631.918463,188.177501 C632.244805,189.330181 632.407974,190.54688 632.407974,191.827635 C632.407974,193.108391 632.244805,194.32509 631.918463,195.47777 C631.592121,196.630449 631.09096,197.643395 630.414966,198.516637 C629.738971,199.389879 628.893991,200.07682 627.879999,200.577478 C626.866006,201.078137 625.671379,201.328463 624.29608,201.328463 C622.82754,201.328463 621.516363,200.990814 620.362511,200.315507 C619.208657,199.6402 618.375332,198.673826 617.862509,197.416358 L617.792578,197.416358 L617.792578,200.83945 L615.764605,200.83945 L615.764605,175.899777 Z M630.205175,191.827635 C630.205175,190.896177 630.094454,189.970554 629.873007,189.050739 C629.651561,188.130924 629.301914,187.310089 628.824055,186.588208 C628.346197,185.866328 627.734315,185.278354 626.988389,184.824268 C626.242464,184.370182 625.345037,184.143143 624.29608,184.143143 C623.130572,184.143143 622.145732,184.370182 621.341533,184.824268 C620.537332,185.278354 619.884657,185.866328 619.383489,186.588208 C618.88232,187.310089 618.521018,188.130924 618.299572,189.050739 C618.078126,189.970554 617.967404,190.896177 617.967404,191.827635 C617.967404,192.759094 618.078126,193.684717 618.299572,194.604532 C618.521018,195.524347 618.88232,196.345182 619.383489,197.067062 C619.884657,197.788943 620.537332,198.376917 621.341533,198.831003 C622.145732,199.285089 623.130572,199.512128 624.29608,199.512128 C625.345037,199.512128 626.242464,199.285089 626.988389,198.831003 C627.734315,198.376917 628.346197,197.788943 628.824055,197.067062 C629.301914,196.345182 629.651561,195.524347 629.873007,194.604532 C630.094454,193.684717 630.205175,192.759094 630.205175,191.827635 Z M652.683824,200.83945 L650.655851,200.83945 L650.655851,197.591005 L650.58592,197.591005 C650.003167,198.801901 649.158186,199.727524 648.050954,200.367901 C646.943721,201.008279 645.714129,201.328463 644.36214,201.328463 C643.219942,201.328463 642.246758,201.171282 641.442557,200.856915 C640.638357,200.542547 639.985682,200.09429 639.484514,199.512128 C638.983346,198.929967 638.616216,198.219741 638.383115,197.381428 C638.150013,196.543115 638.033464,195.588385 638.033464,194.517208 L638.033464,182.815821 L640.236263,182.815821 L640.236263,194.552137 C640.282883,196.18219 640.661668,197.416353 641.372627,198.254666 C642.083587,199.092978 643.313179,199.512128 645.061441,199.512128 C646.017157,199.512128 646.833001,199.308375 647.508995,198.900862 C648.18499,198.493349 648.744425,197.951947 649.187318,197.27664 C649.630211,196.601332 649.956549,195.827069 650.16634,194.953827 C650.376132,194.080585 650.481025,193.189891 650.481025,192.281719 L650.481025,182.815821 L652.683824,182.815821 L652.683824,200.83945 Z M659.078546,182.815821 L661.106519,182.815821 L661.106519,187.042292 L661.176449,187.042292 C661.735893,185.575245 662.604184,184.445869 663.781346,183.654129 C664.958509,182.86239 666.362925,182.501455 667.994636,182.571314 L667.994636,184.771874 C666.9923,184.725301 666.083217,184.859196 665.267361,185.173563 C664.451506,185.48793 663.746384,185.936188 663.151975,186.518349 C662.557566,187.100511 662.097197,187.793273 661.770855,188.596655 C661.444513,189.400038 661.281344,190.279089 661.281344,191.233834 L661.281344,200.83945 L659.078546,200.83945 L659.078546,182.815821 Z M687.571185,199.37241 C687.571185,200.699738 687.425499,201.898973 687.134122,202.97015 C686.842745,204.041327 686.382376,204.949485 685.753002,205.694652 C685.123627,206.439819 684.301957,207.010328 683.287965,207.406198 C682.273973,207.802068 681.032726,208 679.564186,208 C678.65509,208 677.769317,207.895213 676.906842,207.685634 C676.044365,207.476056 675.269315,207.150051 674.581665,206.707608 C673.894015,206.265165 673.322925,205.700477 672.868377,205.013527 C672.413829,204.326576 672.151594,203.505741 672.081663,202.550996 L674.284462,202.550996 C674.401013,203.226303 674.628283,203.790991 674.966281,204.245077 C675.304278,204.699163 675.712199,205.065919 676.190058,205.345357 C676.667916,205.624795 677.198214,205.828548 677.780968,205.956623 C678.363722,206.084699 678.958122,206.148736 679.564186,206.148736 C681.61548,206.148736 683.095653,205.566583 684.004749,204.40226 C684.913845,203.237937 685.368386,201.561337 685.368386,199.37241 L685.368386,196.927344 L685.298456,196.927344 C684.785633,198.045094 684.033892,198.94161 683.04321,199.616917 C682.052529,200.292224 680.892865,200.629873 679.564186,200.629873 C678.118957,200.629873 676.883537,200.39119 675.85789,199.913818 C674.832242,199.436445 673.987263,198.778613 673.322923,197.9403 C672.658584,197.101988 672.174905,196.11815 671.871873,194.988756 C671.568841,193.859363 671.417327,192.654307 671.417327,191.373552 C671.417327,190.139369 671.597978,188.969242 671.959285,187.863136 C672.320593,186.757029 672.845064,185.790655 673.532713,184.963986 C674.220363,184.137317 675.071171,183.485306 676.085162,183.007933 C677.099155,182.530561 678.258817,182.291878 679.564186,182.291878 C680.240181,182.291878 680.875373,182.385023 681.469782,182.571314 C682.064191,182.757606 682.606144,183.019575 683.095657,183.357228 C683.585171,183.694882 684.02223,184.084924 684.406848,184.527367 C684.791465,184.96981 685.088664,185.435532 685.298456,185.924548 L685.368386,185.924548 L685.368386,182.815821 L687.571185,182.815821 L687.571185,199.37241 Z M679.564186,198.778608 C680.519903,198.778608 681.359056,198.574855 682.081671,198.167342 C682.804286,197.759829 683.410341,197.224249 683.899853,196.560584 C684.389367,195.89692 684.756497,195.1343 685.001253,194.272701 C685.24601,193.411102 685.368386,192.52623 685.368386,191.618058 C685.368386,190.733173 685.263493,189.848301 685.053701,188.963415 C684.843909,188.07853 684.505918,187.275159 684.039714,186.553279 C683.573511,185.831399 682.973283,185.249246 682.239013,184.806803 C681.504744,184.364361 680.613144,184.143143 679.564186,184.143143 C678.515229,184.143143 677.617802,184.358539 676.871877,184.789339 C676.125951,185.220138 675.508241,185.784826 675.018729,186.48342 C674.529215,187.182014 674.17374,187.979563 673.952294,188.876092 C673.730848,189.77262 673.620126,190.6866 673.620126,191.618058 C673.620126,192.52623 673.736675,193.411102 673.969777,194.272701 C674.202878,195.1343 674.56418,195.89692 675.053693,196.560584 C675.543207,197.224249 676.160917,197.759829 676.906842,198.167342 C677.652767,198.574855 678.538539,198.778608 679.564186,198.778608 Z" id="provincie-limburg" fill-rule="nonzero"></path>
            </g>
        </g>
    </g>
</svg>